<svg height="512pt" viewBox="0 -51 512 512" width="512pt" xmlns="http://www.w3.org/2000/svg"><path d="m371.226562 306.386719c-8.777343 0-17.113281 2.125-24.710937 6.285156-.566406.304687-1.246094.246094-1.714844-.136719-.433593-.351562-.625-.980468-.46875-1.5 4.023438-13.175781 6.0625-26.910156 6.0625-40.832031 0-76.195313-59.628906-137.515625-135.75-139.59375l-.410156-.003906c-37.03125 0-72.34375 14.148437-99.4375 39.84375-27.335937 25.921875-42.804687 60.316406-43.554687 96.824219-.019532.792968-.671876 1.417968-1.46875 1.425781-38.472657.332031-69.773438 31.933593-69.773438 70.441406 1.796875 38.472656 33.375 70.476563 70.355469 70.476563l300.886719.382812c28.511718 0 51.703124-23.234375 51.703124-51.796875 0-28.570313-23.203124-51.816406-51.71875-51.816406zm0 0"/><path d="m497.003906 156.617188h-29.675781c-8.28125 0-14.996094 6.734374-14.996094 15.039062s6.714844 15.035156 14.996094 15.035156h29.675781c8.28125 0 14.996094-6.730468 14.996094-15.035156s-6.714844-15.039062-14.996094-15.039062zm0 0"/><path d="m328.890625 59.828125c8.285156 0 15-6.730469 15-15.039063v-29.75c0-8.304687-6.714844-15.039062-15-15.039062-8.28125 0-14.996094 6.734375-14.996094 15.039062v29.75c0 8.308594 6.714844 15.039063 14.996094 15.039063zm0 0"/><path d="m426.585938 95.039062c3.839843 0 7.675781-1.464843 10.605468-4.402343l20.980469-21.039063c5.859375-5.871094 5.859375-15.394531 0-21.265625-5.855469-5.875-15.351563-5.875-21.210937 0l-20.980469 21.035157c-5.855469 5.875-5.855469 15.394531 0 21.269531 2.929687 2.9375 6.765625 4.402343 10.605469 4.402343zm0 0"/><path d="m220.589844 90.636719c2.929687 2.9375 6.765625 4.40625 10.605468 4.40625 3.835938 0 7.675782-1.46875 10.605469-4.40625 5.855469-5.871094 5.855469-15.394531 0-21.265625l-20.980469-21.039063c-5.859374-5.871093-15.355468-5.871093-21.210937 0-5.859375 5.871094-5.859375 15.394531 0 21.265625zm0 0"/><path d="m437.191406 265.289062c-5.855468-5.875-15.351562-5.875-21.210937 0-5.855469 5.871094-5.855469 15.394532 0 21.265626l20.980469 21.039062c2.929687 2.9375 6.769531 4.402344 10.605468 4.402344 3.839844 0 7.675782-1.46875 10.605469-4.402344 5.859375-5.871094 5.859375-15.394531 0-21.265625zm0 0"/><path d="m379.371094 262.183594c7.738281-4.675782 14.863281-10.445313 21.160156-17.210938 16.980469-18.246094 26.332031-42.042968 26.332031-67.011718 0-54.167969-43.949219-98.234376-97.972656-98.234376-26.605469 0-51.253906 10.683594-69.195313 28.617188 67.425782 20.109375 116.335938 80.660156 119.675782 153.839844zm0 0"/></svg>