<svg height="511pt" viewBox="0 1 511 511.999" width="511pt" xmlns="http://www.w3.org/2000/svg"><path d="m267.957031 277.261719c-2.320312-5.605469-7.792969-9.261719-13.859375-9.261719h-31.96875l24.453125-36.679688c3.066407-4.601562 3.351563-10.519531.742188-15.398437-2.609375-4.875-7.691407-7.921875-13.226563-7.921875h-70c-5.265625 0-10.148437 2.765625-12.859375 7.28125l-55.199219 92c-2.78125 4.636719-2.855468 10.40625-.191406 15.109375 2.660156 4.703125 7.648438 7.609375 13.050782 7.609375h22.902343l-14.410156 72.058594c-1.296875 6.480468 1.804687 13.046875 7.632813 16.167968 2.230468 1.191407 4.660156 1.773438 7.070312 1.773438 3.886719 0 7.730469-1.511719 10.613281-4.394531l122-122c4.289063-4.289063 5.574219-10.742188 3.25-16.34375zm0 0"/><path d="m427.570312 140.765625c1.949219-8.417969 2.929688-17.027344 2.929688-25.765625 0-63.410156-51.589844-115-115-115-22.199219 0-43.742188 6.355469-62.304688 18.386719-13.226562 8.570312-24.492187 19.703125-33.183593 32.695312-13.621094-7.289062-28.742188-11.082031-44.511719-11.082031-52.382812 0-95 42.617188-95 95 0 2.039062.070312 4.089844.210938 6.148438-45.382813 7.125-80.210938 46.496093-80.210938 93.851562 0 41.738281 27.058594 77.277344 64.554688 89.996094-2.535157-11.160156-.789063-23.070313 5.257812-33.148438l55.199219-92c8.085937-13.476562 22.871093-21.847656 38.585937-21.847656h70c16.628906 0 31.832032 9.105469 39.675782 23.765625 6.910156 12.910156 7.070312 28.179687.714843 41.089844 9.375 4.753906 16.972657 12.753906 21.1875 22.925781.65625 1.585938 1.21875 3.199219 1.6875 4.820312 2.34375-.382812 4.726563-.601562 7.136719-.601562h70c16.625 0 31.828125 9.105469 39.675781 23.765625 6.058594 11.320313 6.925781 24.453125 2.761719 36.214844 51.722656-.769531 93.5625-43.078125 93.5625-94.980469 0-48.292969-36.226562-88.285156-82.929688-94.234375zm0 0"/><path d="m394.5 360h-31.972656l24.453125-36.679688c3.066406-4.601562 3.355469-10.519531.742187-15.398437-2.609375-4.875-7.691406-7.921875-13.222656-7.921875h-70c-5.269531 0-10.152344 2.765625-12.863281 7.28125l-55.199219 92c-2.78125 4.636719-2.855469 10.40625-.191406 15.109375 2.664062 4.703125 7.648437 7.609375 13.054687 7.609375h22.902344l-14.414063 72.058594c-1.292968 6.480468 1.804688 13.046875 7.632813 16.167968 2.230469 1.191407 4.660156 1.773438 7.074219 1.773438 3.886718 0 7.726562-1.511719 10.609375-4.394531l122-122c4.289062-4.289063 5.574219-10.742188 3.253906-16.347657-2.324219-5.605468-7.792969-9.257812-13.859375-9.257812zm0 0"/></svg>